<svg width="235" height="29" viewBox="0 0 235 29" fill="none" xmlns="http://www.w3.org/2000/svg">
<path d="M1.248 6.2H5.424V16.568C5.424 17.208 5.552 17.76 5.808 18.224C6.064 18.672 6.424 19.016 6.888 19.256C7.352 19.48 7.896 19.592 8.52 19.592C9.16 19.592 9.72 19.48 10.2 19.256C10.68 19.016 11.048 18.672 11.304 18.224C11.576 17.76 11.712 17.208 11.712 16.568V6.2H15.888V16.184C15.888 17.352 15.688 18.376 15.288 19.256C14.888 20.12 14.336 20.848 13.632 21.44C12.944 22.016 12.152 22.448 11.256 22.736C10.36 23.024 9.424 23.168 8.448 23.168C7.136 23.168 5.936 22.912 4.848 22.4C3.76 21.872 2.888 21.096 2.232 20.072C1.576 19.032 1.248 17.736 1.248 16.184V6.2ZM33.0928 6.2V23H28.8928L22.6288 12.824V23H18.4528V6.2H22.6528L28.9168 16.448V6.2H33.0928ZM39.9023 6.2V19.496H47.2223V23H35.7263V6.2H39.9023ZM56.9604 23.168C55.7604 23.168 54.6404 22.96 53.6004 22.544C52.5604 22.128 51.6404 21.544 50.8404 20.792C50.0564 20.024 49.4404 19.12 48.9924 18.08C48.5444 17.024 48.3204 15.864 48.3204 14.6C48.3204 13.336 48.5444 12.184 48.9924 11.144C49.4404 10.088 50.0564 9.184 50.8404 8.432C51.6404 7.664 52.5604 7.072 53.6004 6.656C54.6404 6.24 55.7604 6.032 56.9604 6.032C58.1604 6.032 59.2804 6.24 60.3204 6.656C61.3764 7.072 62.2964 7.664 63.0804 8.432C63.8644 9.184 64.4804 10.088 64.9284 11.144C65.3764 12.184 65.6004 13.336 65.6004 14.6C65.6004 15.864 65.3764 17.024 64.9284 18.08C64.4804 19.12 63.8564 20.024 63.0564 20.792C62.2724 21.544 61.3604 22.128 60.3204 22.544C59.2804 22.96 58.1604 23.168 56.9604 23.168ZM56.9604 19.592C57.8404 19.592 58.6084 19.376 59.2644 18.944C59.9204 18.512 60.4324 17.92 60.8004 17.168C61.1684 16.416 61.3524 15.56 61.3524 14.6C61.3524 13.624 61.1684 12.768 60.8004 12.032C60.4324 11.28 59.9204 10.688 59.2644 10.256C58.6084 9.824 57.8404 9.608 56.9604 9.608C56.0644 9.608 55.2884 9.824 54.6324 10.256C53.9764 10.688 53.4644 11.28 53.0964 12.032C52.7444 12.768 52.5684 13.624 52.5684 14.6C52.5684 15.56 52.7444 16.416 53.0964 17.168C53.4644 17.92 53.9764 18.512 54.6324 18.944C55.2884 19.376 56.0644 19.592 56.9604 19.592ZM66.9298 14.6C66.9298 13.352 67.1298 12.208 67.5298 11.168C67.9458 10.112 68.5218 9.2 69.2578 8.432C70.0098 7.664 70.9058 7.072 71.9458 6.656C72.9858 6.24 74.1298 6.032 75.3778 6.032C77.2658 6.032 78.8818 6.504 80.2258 7.448C81.5698 8.376 82.5298 9.656 83.1058 11.288L79.4818 12.08C79.1938 11.488 78.8498 11.008 78.4498 10.64C78.0498 10.256 77.5938 9.976 77.0818 9.8C76.5698 9.624 76.0018 9.536 75.3778 9.536C74.4818 9.536 73.7138 9.76 73.0738 10.208C72.4338 10.656 71.9458 11.264 71.6098 12.032C71.2738 12.784 71.1058 13.64 71.1058 14.6C71.1058 15.576 71.2738 16.448 71.6098 17.216C71.9458 17.968 72.4338 18.568 73.0738 19.016C73.7138 19.448 74.4818 19.664 75.3778 19.664C76.0018 19.664 76.5858 19.576 77.1298 19.4C77.6738 19.208 78.1618 18.904 78.5938 18.488C79.0258 18.056 79.3938 17.496 79.6978 16.808L83.2258 17.528C82.6498 19.32 81.6818 20.712 80.3218 21.704C78.9618 22.68 77.3138 23.168 75.3778 23.168C74.1298 23.168 72.9858 22.96 71.9458 22.544C70.9058 22.128 70.0098 21.544 69.2578 20.792C68.5218 20.024 67.9458 19.12 67.5298 18.08C67.1298 17.024 66.9298 15.864 66.9298 14.6ZM85.4138 6.2H89.5898V12.728H90.7658L95.9258 6.2H100.87L94.3898 14.432L101.134 23H95.9498L90.7898 16.232H89.5898V23H85.4138V6.2ZM120.623 6.2H125.399L119.039 17.48V23H114.863V17.48L108.479 6.2H113.255L116.951 13.136L120.623 6.2ZM135.171 23.168C133.971 23.168 132.851 22.96 131.811 22.544C130.771 22.128 129.851 21.544 129.051 20.792C128.267 20.024 127.651 19.12 127.203 18.08C126.755 17.024 126.531 15.864 126.531 14.6C126.531 13.336 126.755 12.184 127.203 11.144C127.651 10.088 128.267 9.184 129.051 8.432C129.851 7.664 130.771 7.072 131.811 6.656C132.851 6.24 133.971 6.032 135.171 6.032C136.371 6.032 137.491 6.24 138.531 6.656C139.587 7.072 140.507 7.664 141.291 8.432C142.075 9.184 142.691 10.088 143.139 11.144C143.587 12.184 143.811 13.336 143.811 14.6C143.811 15.864 143.587 17.024 143.139 18.08C142.691 19.12 142.067 20.024 141.267 20.792C140.483 21.544 139.571 22.128 138.531 22.544C137.491 22.96 136.371 23.168 135.171 23.168ZM135.171 19.592C136.051 19.592 136.819 19.376 137.475 18.944C138.131 18.512 138.643 17.92 139.011 17.168C139.379 16.416 139.563 15.56 139.563 14.6C139.563 13.624 139.379 12.768 139.011 12.032C138.643 11.28 138.131 10.688 137.475 10.256C136.819 9.824 136.051 9.608 135.171 9.608C134.275 9.608 133.499 9.824 132.843 10.256C132.187 10.688 131.675 11.28 131.307 12.032C130.955 12.768 130.779 13.624 130.779 14.6C130.779 15.56 130.955 16.416 131.307 17.168C131.675 17.92 132.187 18.512 132.843 18.944C133.499 19.376 134.275 19.592 135.171 19.592ZM145.717 6.2H149.893V16.568C149.893 17.208 150.021 17.76 150.277 18.224C150.533 18.672 150.893 19.016 151.357 19.256C151.821 19.48 152.365 19.592 152.989 19.592C153.629 19.592 154.189 19.48 154.669 19.256C155.149 19.016 155.517 18.672 155.773 18.224C156.045 17.76 156.181 17.208 156.181 16.568V6.2H160.357V16.184C160.357 17.352 160.157 18.376 159.757 19.256C159.357 20.12 158.805 20.848 158.101 21.44C157.413 22.016 156.621 22.448 155.725 22.736C154.829 23.024 153.893 23.168 152.917 23.168C151.605 23.168 150.405 22.912 149.317 22.4C148.229 21.872 147.357 21.096 146.701 20.072C146.045 19.032 145.717 17.736 145.717 16.184V6.2ZM172.618 11.672C172.618 11.064 172.434 10.584 172.066 10.232C171.698 9.88 171.138 9.704 170.386 9.704H167.098V13.664H170.386C170.882 13.664 171.29 13.592 171.61 13.448C171.946 13.288 172.194 13.056 172.354 12.752C172.53 12.448 172.618 12.088 172.618 11.672ZM170.65 6.2C172.042 6.2 173.194 6.456 174.106 6.968C175.034 7.464 175.722 8.128 176.17 8.96C176.634 9.792 176.866 10.696 176.866 11.672C176.866 12.344 176.738 13.008 176.482 13.664C176.242 14.32 175.866 14.912 175.354 15.44C174.858 15.968 174.218 16.392 173.434 16.712C172.65 17.016 171.722 17.168 170.65 17.168H167.098V23H162.922V6.2H170.65ZM172.762 15.728L177.178 23H172.57L168.394 15.728H172.762ZM182.524 17.888C182.604 18.352 182.764 18.728 183.004 19.016C183.26 19.288 183.564 19.488 183.916 19.616C184.284 19.728 184.684 19.784 185.116 19.784C185.868 19.784 186.444 19.632 186.844 19.328C187.26 19.008 187.468 18.6 187.468 18.104C187.468 17.704 187.34 17.384 187.084 17.144C186.844 16.904 186.5 16.704 186.052 16.544C185.62 16.368 185.116 16.192 184.54 16.016C183.9 15.84 183.252 15.64 182.596 15.416C181.94 15.176 181.332 14.88 180.772 14.528C180.212 14.16 179.764 13.688 179.428 13.112C179.092 12.536 178.932 11.816 178.948 10.952C178.948 9.896 179.22 9 179.764 8.264C180.308 7.528 181.044 6.976 181.972 6.608C182.9 6.224 183.964 6.032 185.164 6.032C186.252 6.032 187.22 6.192 188.068 6.512C188.916 6.832 189.612 7.304 190.156 7.928C190.716 8.536 191.108 9.296 191.332 10.208L187.492 10.88C187.428 10.528 187.284 10.24 187.06 10.016C186.836 9.792 186.564 9.632 186.244 9.536C185.94 9.424 185.636 9.368 185.332 9.368C184.948 9.368 184.596 9.432 184.276 9.56C183.956 9.688 183.692 9.872 183.484 10.112C183.292 10.352 183.196 10.632 183.196 10.952C183.196 11.304 183.308 11.592 183.532 11.816C183.772 12.04 184.092 12.24 184.492 12.416C184.892 12.592 185.332 12.76 185.812 12.92C186.468 13.128 187.14 13.352 187.828 13.592C188.516 13.832 189.156 14.144 189.748 14.528C190.34 14.896 190.812 15.376 191.164 15.968C191.532 16.544 191.716 17.272 191.716 18.152C191.716 19.096 191.484 19.944 191.02 20.696C190.556 21.448 189.86 22.048 188.932 22.496C188.004 22.944 186.828 23.168 185.404 23.168C184.204 23.168 183.124 23 182.164 22.664C181.22 22.312 180.444 21.8 179.836 21.128C179.228 20.456 178.828 19.632 178.636 18.656L182.524 17.888ZM206.436 9.704H198.012V12.848H204.3V16.112H198.012V19.496H206.436V23H193.836V6.2H206.436V9.704ZM212.777 6.2V19.496H220.097V23H208.601V6.2H212.777ZM221.843 6.2H234.443V9.704H226.019V12.848H232.307V16.112H226.019V23H221.843V6.2Z" fill="black"/>
</svg>
